<svg width="35" height="35" viewBox="0 0 35 35" fill="none" xmlns="http://www.w3.org/2000/svg">
<path d="M30 16.25H18.75V5C18.75 4.66848 18.6183 4.35054 18.3839 4.11612C18.1495 3.8817 17.8315 3.75 17.5 3.75C17.1685 3.75 16.8505 3.8817 16.6161 4.11612C16.3817 4.35054 16.25 4.66848 16.25 5V16.25H5C4.66848 16.25 4.35054 16.3817 4.11612 16.6161C3.8817 16.8505 3.75 17.1685 3.75 17.5C3.75 17.8315 3.8817 18.1495 4.11612 18.3839C4.35054 18.6183 4.66848 18.75 5 18.75H16.25V30C16.25 30.3315 16.3817 30.6495 16.6161 30.8839C16.8505 31.1183 17.1685 31.25 17.5 31.25C17.8315 31.25 18.1495 31.1183 18.3839 30.8839C18.6183 30.6495 18.75 30.3315 18.75 30V18.75H30C30.3315 18.75 30.6495 18.6183 30.8839 18.3839C31.1183 18.1495 31.25 17.8315 31.25 17.5C31.25 17.1685 31.1183 16.8505 30.8839 16.6161C30.6495 16.3817 30.3315 16.25 30 16.25Z" fill="#FFFDFD"/>
</svg>
