<svg width="401" height="136" viewBox="0 0 401 136" fill="none" xmlns="http://www.w3.org/2000/svg">
<g clip-path="url(#clip0_201_4)">
<path d="M18.4028 16.9167C13.5221 16.9167 8.84124 18.8507 5.39006 22.2932C1.93886 25.7357 0 30.4048 0 35.2732V104.294C0 109.162 1.93886 113.831 5.39006 117.274C8.84124 120.716 13.5221 122.65 18.4028 122.65H58.6798C61.0966 122.65 63.49 122.176 65.7229 121.254C67.9559 120.331 69.9852 118.98 71.6944 117.275L100.609 88.4278C102.318 86.7229 103.674 84.699 104.599 82.4717C105.524 80.2444 106 77.857 106 75.4459V35.2732C106 30.4048 104.061 25.7357 100.61 22.2932C97.1589 18.8507 92.4781 16.9167 87.5973 16.9167H18.4028ZM7.36111 35.2732C7.36111 32.3522 8.52441 29.5507 10.5951 27.4852C12.6659 25.4197 15.4744 24.2593 18.4028 24.2593H87.5973C90.5258 24.2593 93.3341 25.4197 95.4047 27.4852C97.4754 29.5507 98.6388 32.3522 98.6388 35.2732V75.6574H77.2915C72.4108 75.6574 67.73 77.5916 64.2788 81.0337C60.8279 84.4763 58.8888 89.1453 58.8888 94.0138V115.307H18.4028C15.4744 115.307 12.6659 114.147 10.5951 112.081C8.52441 110.016 7.36111 107.215 7.36111 104.294V35.2732ZM66.25 112.311V94.0138C66.25 91.093 67.4134 88.2914 69.4841 86.226C71.5547 84.1605 74.3634 83 77.2915 83H95.6354C95.5601 83.0795 95.4837 83.1579 95.4058 83.2348L66.4883 112.082C66.4101 112.16 66.3308 112.236 66.25 112.311Z" fill="#D99BFF"/>
<path d="M62.7088 29.0811L73.5212 46.7115H73.8743L84.6867 29.0811H92.5866L78.5083 51.6199L92.6747 74.1586H84.7309L73.8743 56.7702H73.5212L62.665 74.1586H54.7212L69.1302 51.6199L54.8093 29.0811H62.7088Z" fill="#D99BFF"/>
<path d="M52.5273 62.5247V107.337H46.2974L23.4617 74.4718H23.0449V107.337H16.2666V62.5247H22.5404L45.3979 95.4336H45.8146V62.5247H52.5273Z" fill="#D99BFF"/>
<path d="M45.8132 23.1149V62.856H52.5263V23.1149H45.8132Z" fill="#D99BFF"/>
<path d="M16.2656 107.337V120.462H23.0276V107.337H16.2656Z" fill="#D99BFF"/>
</g>
<path d="M189.945 107H175.541L140.58 50.0176H140.141C140.271 51.9382 140.385 53.9727 140.482 56.1211C140.613 58.2695 140.71 60.4831 140.775 62.7617C140.873 65.0404 140.954 67.3516 141.02 69.6953V107H130.375V35.6133H144.682L179.594 92.2051H179.936C179.87 90.5449 179.789 88.6406 179.691 86.4922C179.594 84.3438 179.496 82.1302 179.398 79.8516C179.333 77.5404 179.285 75.3105 179.252 73.1621V35.6133H189.945V107ZM252.375 79.8516C252.375 84.3438 251.789 88.3314 250.617 91.8145C249.445 95.2975 247.736 98.2435 245.49 100.652C243.244 103.029 240.542 104.852 237.385 106.121C234.227 107.358 230.663 107.977 226.691 107.977C222.98 107.977 219.579 107.358 216.486 106.121C213.394 104.852 210.708 103.029 208.43 100.652C206.184 98.2435 204.442 95.2975 203.205 91.8145C201.968 88.3314 201.35 84.3438 201.35 79.8516C201.35 73.8945 202.375 68.849 204.426 64.7148C206.509 60.5482 209.471 57.3743 213.312 55.1934C217.154 53.0124 221.727 51.9219 227.033 51.9219C232.014 51.9219 236.408 53.0124 240.217 55.1934C244.025 57.3743 247.004 60.5482 249.152 64.7148C251.301 68.8815 252.375 73.9271 252.375 79.8516ZM213.166 79.8516C213.166 83.7904 213.638 87.1595 214.582 89.959C215.559 92.7585 217.056 94.9069 219.074 96.4043C221.092 97.8691 223.697 98.6016 226.887 98.6016C230.077 98.6016 232.681 97.8691 234.699 96.4043C236.717 94.9069 238.199 92.7585 239.143 89.959C240.087 87.1595 240.559 83.7904 240.559 79.8516C240.559 75.9128 240.087 72.5762 239.143 69.8418C238.199 67.0749 236.717 64.9753 234.699 63.543C232.681 62.0781 230.061 61.3457 226.838 61.3457C222.085 61.3457 218.618 62.9408 216.438 66.1309C214.257 69.321 213.166 73.8945 213.166 79.8516ZM282.676 98.6992C284.173 98.6992 285.654 98.569 287.119 98.3086C288.584 98.0156 289.919 97.6738 291.123 97.2832V105.975C289.854 106.528 288.21 107 286.191 107.391C284.173 107.781 282.074 107.977 279.893 107.977C276.833 107.977 274.082 107.472 271.641 106.463C269.199 105.421 267.262 103.647 265.83 101.141C264.398 98.6341 263.682 95.1673 263.682 90.7402V61.6875H256.309V56.5605L264.219 52.5078L267.979 40.9355H275.205V52.9473H290.684V61.6875H275.205V90.5938C275.205 93.3281 275.889 95.3626 277.256 96.6973C278.623 98.0319 280.43 98.6992 282.676 98.6992ZM320.643 51.9219C325.46 51.9219 329.594 52.9147 333.045 54.9004C336.495 56.8861 339.148 59.7018 341.004 63.3477C342.859 66.9935 343.787 71.3555 343.787 76.4336V82.5859H307.703C307.833 87.8268 309.233 91.8633 311.902 94.6953C314.604 97.5273 318.38 98.9434 323.23 98.9434C326.681 98.9434 329.773 98.6178 332.508 97.9668C335.275 97.2832 338.123 96.2904 341.053 94.9883V104.314C338.351 105.584 335.6 106.512 332.801 107.098C330.001 107.684 326.648 107.977 322.742 107.977C317.436 107.977 312.765 106.951 308.729 104.9C304.725 102.817 301.583 99.7246 299.305 95.623C297.059 91.5215 295.936 86.4271 295.936 80.3398C295.936 74.2852 296.961 69.1419 299.012 64.9102C301.062 60.6784 303.943 57.4557 307.654 55.2422C311.365 53.0286 315.695 51.9219 320.643 51.9219ZM320.643 60.5645C317.029 60.5645 314.1 61.7363 311.854 64.0801C309.64 66.4238 308.338 69.8581 307.947 74.3828H332.557C332.524 71.681 332.068 69.2884 331.189 67.2051C330.343 65.1217 329.041 63.4941 327.283 62.3223C325.558 61.1504 323.344 60.5645 320.643 60.5645ZM365.689 79.3633L347.623 52.9473H360.709L373.062 71.9414L385.465 52.9473H398.502L380.338 79.3633L399.43 107H386.295L373.062 86.7363L359.781 107H346.744L365.689 79.3633Z" fill="white"/>
<defs>
<clipPath id="clip0_201_4">
<rect width="106" height="108.65" fill="white" transform="translate(0 14)"/>
</clipPath>
</defs>
</svg>
