<svg width="203" height="69" viewBox="0 0 203 69" fill="none" xmlns="http://www.w3.org/2000/svg">
<path d="M1.8938 64.5273C53.6675 -15.4192 77.8963 -18.7493 168.727 47.9967" stroke="url(#paint0_linear_7_83)"/>
<path d="M14.0965 68.4965C12.6042 68.4965 11.5353 68.1739 10.89 67.5285C10.2447 66.8429 9.922 65.5724 9.922 63.717C9.922 62.4667 10.043 60.9542 10.285 59.1795C10.527 57.4049 10.9505 54.7227 11.5555 51.133C11.6362 50.649 11.9588 48.6929 12.5235 45.2645C13.0882 41.7959 13.5924 38.1659 14.036 34.3745C14.4394 31.1479 14.641 28.7279 14.641 27.1145C14.641 25.2995 13.9755 24.392 12.6445 24.392C11.6362 24.392 10.3657 24.9365 8.833 26.0255C7.34067 27.0742 5.72733 28.7682 3.993 31.1075C3.42833 31.8739 2.80317 32.257 2.1175 32.257C1.55283 32.257 1.04867 31.9949 0.605 31.4705C0.201667 30.9059 0 30.2807 0 29.595C0 28.9094 0.121 28.264 0.363 27.659C0.605 27.0137 1.04867 26.2474 1.694 25.36C3.67033 22.6577 5.8685 20.5805 8.2885 19.1285C10.7085 17.6362 13.2495 16.89 15.9115 16.89C18.1299 16.89 19.7835 17.5757 20.8725 18.947C22.0019 20.3184 22.5665 22.3149 22.5665 24.9365C22.5665 27.2759 22.2439 30.6639 21.5985 35.1005C23.6152 29.1312 26.1764 24.6139 29.282 21.5485C32.3877 18.4429 36.0379 16.89 40.2325 16.89C43.5399 16.89 46.0204 17.8379 47.674 19.7335C49.368 21.5889 50.215 24.0895 50.215 27.2355C50.215 29.0102 49.9529 31.168 49.4285 33.709L45.738 51.012C45.3347 53.0287 45.133 54.763 45.133 56.215C45.133 57.909 45.5162 59.1795 46.2825 60.0265C47.0892 60.8735 48.1984 61.297 49.61 61.297C50.941 61.297 52.2317 60.8534 53.482 59.966C54.7727 59.0787 56.2852 57.6065 58.0195 55.5495C58.5035 54.9849 59.048 54.7025 59.653 54.7025C60.1774 54.7025 60.5807 54.9445 60.863 55.4285C61.1857 55.9125 61.347 56.578 61.347 57.425C61.347 58.998 60.9639 60.2484 60.1975 61.176C58.1002 63.717 56.023 65.5724 53.966 66.742C51.909 67.9117 49.7512 68.4965 47.4925 68.4965C44.0642 68.4965 41.382 67.4882 39.446 65.4715C37.51 63.4145 36.542 60.6719 36.542 57.2435C36.542 55.9125 36.6429 54.4605 36.8445 52.8875C37.0865 51.3145 37.4697 49.318 37.994 46.898L40.414 35.8265C40.4947 35.4635 40.6359 34.8182 40.8375 33.8905C41.0392 32.9629 41.2005 32.0957 41.3215 31.289C41.4425 30.442 41.503 29.6152 41.503 28.8085C41.503 27.5179 41.14 26.4894 40.414 25.723C39.688 24.9567 38.6595 24.5735 37.3285 24.5735C34.9085 24.5735 32.4885 25.8642 30.0685 28.4455C27.6485 31.0269 25.41 35.2014 23.353 40.969C21.296 46.6964 19.6827 54.037 18.513 62.991C18.2307 65.048 17.8072 66.4799 17.2425 67.2865C16.7182 68.0932 15.6695 68.4965 14.0965 68.4965ZM87.2887 49.6205C87.813 49.6205 88.2164 49.8827 88.4987 50.407C88.781 50.9314 88.9222 51.5969 88.9222 52.4035C88.9222 54.3395 88.3374 55.489 87.1677 55.852C84.7477 56.699 82.0857 57.183 79.1817 57.304C78.4154 60.692 76.9029 63.4145 74.6442 65.4715C72.3855 67.4882 69.8244 68.4965 66.9607 68.4965C64.5407 68.4965 62.4635 67.9117 60.7292 66.742C59.0352 65.5724 57.7445 64.0195 56.8572 62.0835C55.9699 60.1475 55.5262 58.0502 55.5262 55.7915C55.5262 52.7262 56.111 50.0037 57.2807 47.624C58.4504 45.204 60.0637 43.3285 62.1207 41.9975C64.1777 40.6262 66.4565 39.9405 68.9572 39.9405C72.0225 39.9405 74.4829 41.0094 76.3382 43.147C78.2339 45.2444 79.343 47.8459 79.6657 50.9515C81.5614 50.8305 83.82 50.4272 86.4417 49.7415C86.7644 49.6609 87.0467 49.6205 87.2887 49.6205ZM67.4447 62.0835C68.7354 62.0835 69.8445 61.5592 70.7722 60.5105C71.7402 59.4619 72.3855 57.9494 72.7082 55.973C71.4579 55.126 70.4899 54.0169 69.8042 52.6455C69.1589 51.2742 68.8362 49.8222 68.8362 48.2895C68.8362 47.6442 68.8967 46.9989 69.0177 46.3535H68.7152C67.1019 46.3535 65.7507 47.14 64.6617 48.713C63.613 50.2457 63.0887 52.4237 63.0887 55.247C63.0887 57.4654 63.5122 59.1594 64.3592 60.329C65.2465 61.4987 66.275 62.0835 67.4447 62.0835ZM112.249 54.7025C112.773 54.7025 113.176 54.9445 113.459 55.4285C113.781 55.9125 113.943 56.578 113.943 57.425C113.943 59.0384 113.56 60.2887 112.793 61.176C111.059 63.3137 109.163 65.0682 107.106 66.4395C105.049 67.8109 102.69 68.4965 100.028 68.4965C91.7998 68.4965 87.6858 62.7087 87.6858 51.133C87.6858 49.3584 87.7463 47.5635 87.8673 45.7485H85.5078C84.2978 45.7485 83.471 45.5267 83.0273 45.083C82.624 44.6394 82.4223 43.9335 82.4223 42.9655C82.4223 40.7069 83.3298 39.5775 85.1448 39.5775H88.5933C89.279 35.1409 90.3276 31.0874 91.7393 27.417C93.151 23.7467 94.845 20.8225 96.8213 18.6445C98.838 16.4665 100.996 15.3775 103.295 15.3775C104.989 15.3775 106.32 16.1237 107.288 17.616C108.256 19.1084 108.74 20.9839 108.74 23.2425C108.74 29.4942 106.118 34.9392 100.875 39.5775H107.651C108.296 39.5775 108.76 39.7187 109.042 40.001C109.325 40.2834 109.466 40.8077 109.466 41.574C109.466 44.357 107.187 45.7485 102.629 45.7485H95.2483C95.1676 47.7652 95.1273 49.3382 95.1273 50.4675C95.1273 54.6622 95.6113 57.6065 96.5793 59.3005C97.5876 60.9945 99.1606 61.8415 101.298 61.8415C103.033 61.8415 104.565 61.3172 105.896 60.2685C107.227 59.2199 108.8 57.6469 110.615 55.5495C111.099 54.9849 111.644 54.7025 112.249 54.7025ZM101.661 21.1855C101.056 21.1855 100.371 21.9519 99.6043 23.4845C98.8783 24.9769 98.1725 27.0742 97.4868 29.7765C96.8415 32.4385 96.297 35.403 95.8533 38.67C98.233 36.613 100.008 34.314 101.177 31.773C102.387 29.1917 102.992 26.8524 102.992 24.755C102.992 22.3754 102.549 21.1855 101.661 21.1855ZM130.676 56.5175C131.2 56.5175 131.603 56.7595 131.886 57.2435C132.208 57.7275 132.37 58.393 132.37 59.24C132.37 60.692 132.027 61.9424 131.341 62.991C130.212 64.7254 128.72 66.0765 126.864 67.0445C125.049 68.0125 122.871 68.4965 120.33 68.4965C116.458 68.4965 113.453 67.347 111.316 65.048C109.178 62.7087 108.109 59.5627 108.109 55.61C108.109 52.827 108.694 50.2457 109.864 47.866C111.033 45.446 112.647 43.5302 114.704 42.1185C116.801 40.7069 119.161 40.001 121.782 40.001C124.122 40.001 125.997 40.7069 127.409 42.1185C128.82 43.4899 129.526 45.3654 129.526 47.745C129.526 50.528 128.518 52.9279 126.501 54.9445C124.525 56.9209 121.137 58.4939 116.337 59.6635C117.305 61.5189 118.939 62.4465 121.238 62.4465C122.891 62.4465 124.243 62.0634 125.291 61.297C126.38 60.5307 127.631 59.24 129.042 57.425C129.526 56.82 130.071 56.5175 130.676 56.5175ZM120.754 45.93C119.261 45.93 117.991 46.7972 116.942 48.5315C115.934 50.2659 115.43 52.3632 115.43 54.8235V54.9445C117.809 54.3799 119.685 53.5329 121.056 52.4035C122.428 51.2742 123.113 49.9634 123.113 48.471C123.113 47.7047 122.891 47.0997 122.448 46.656C122.044 46.172 121.48 45.93 120.754 45.93Z" fill="white"/>
<path d="M199.031 45.1949C200.063 45.1949 200.859 45.6715 201.414 46.6249C202.05 47.5782 202.367 48.889 202.367 50.5574C202.367 53.4174 201.693 55.8801 200.342 57.9457C195.654 65.1751 188.98 68.7899 180.322 68.7899C176.587 68.7899 173.251 68.0749 170.311 66.6449C167.451 65.1355 165.108 62.9905 163.28 60.2099C158.673 65.8505 153.31 68.6707 147.193 68.6707C142.824 68.6707 139.368 67.3996 136.825 64.8574C134.283 62.3151 133.012 58.9388 133.012 54.7282C133.012 50.7559 133.926 47.5384 135.753 45.0757C137.58 42.613 140.162 41.3815 143.499 41.3815C146.359 41.3815 147.789 42.454 147.789 44.599C147.789 45.2346 147.709 46.3467 147.55 47.9357L147.193 52.464C147.193 54.8474 148.226 56.039 150.291 56.039C151.801 56.039 153.231 55.1651 154.581 53.4174C156.011 51.5901 157.163 49.1274 158.037 46.029C158.99 42.9307 159.467 39.5146 159.467 35.7807C159.467 32.9207 159.11 30.5374 158.395 28.6307C157.68 26.6446 156.806 25.6515 155.773 25.6515C154.899 25.6515 154.264 25.8899 153.866 26.3665C153.469 26.7638 153.072 27.4788 152.675 28.5115C152.198 29.7826 151.562 30.8155 150.768 31.6099C149.974 32.3249 148.583 32.6824 146.597 32.6824C144.849 32.6824 143.459 32.0865 142.426 30.8949C141.394 29.6238 140.877 27.7171 140.877 25.1749C140.877 21.1232 142.109 17.9455 144.571 15.6415C147.034 13.3376 150.212 12.1857 154.105 12.1857C157.441 12.1857 160.46 13.0199 163.161 14.6882C165.862 16.2771 167.928 18.6207 169.358 21.719C171.741 18.5413 174.403 16.158 177.342 14.569C180.362 12.9801 183.301 12.1857 186.161 12.1857C189.259 12.1857 191.602 12.9007 193.192 14.3307C194.86 15.7607 195.694 18.0646 195.694 21.2424C195.694 24.8174 195.019 27.6376 193.668 29.7032C192.317 31.6892 190.689 32.6824 188.782 32.6824C187.035 32.6824 185.844 32.3249 185.207 31.6099C184.571 30.8949 184.095 29.8621 183.777 28.5115C183.618 27.5582 183.38 26.8432 183.062 26.3665C182.745 25.8899 182.188 25.6515 181.394 25.6515C180.441 25.6515 179.409 26.5651 178.296 28.3924C177.264 30.1401 176.349 32.4838 175.555 35.4232C174.84 38.3626 174.482 41.4213 174.482 44.599C174.482 48.174 175.277 51.034 176.865 53.179C178.534 55.324 180.52 56.3965 182.824 56.3965C187.193 56.3965 191.523 53.2584 195.813 46.9824C196.607 45.7907 197.68 45.1949 199.031 45.1949Z" fill="#C67DC3"/>
<defs>
<linearGradient id="paint0_linear_7_83" x1="68.4909" y1="2.19181" x2="78.2967" y2="62.6612" gradientUnits="userSpaceOnUse">
<stop stop-color="white"/>
<stop offset="1" stop-color="#C67DC3"/>
</linearGradient>
</defs>
</svg>
