<svg width="469" height="301" viewBox="0 0 469 301" fill="none" xmlns="http://www.w3.org/2000/svg">
<path d="M146.4 297.6C136.533 295.2 127.867 290.267 120.4 282.8C117.2 279.6 114.933 277.067 113.6 275.2C112.533 273.067 111.867 270.267 111.6 266.8C111.067 264.4 106.933 243.6 99.2 204.4L87.6 146.8L80.8 172C69.0667 215.733 61.8668 242.667 59.2001 252.8C53.6001 274.4 50.2668 286.933 49.2001 290.4C48.1334 293.867 46.8001 296 45.2001 296.8C42.8001 298.133 38.9333 298 33.6 296.4C28.2667 294.533 23.0667 291.6 18 287.6C11.0667 282.533 6.13338 277.067 3.20005 271.2C1.60005 268.267 0.800049 265.467 0.800049 262.8C1.06672 260.133 2.40005 254.933 4.80005 247.2C10.1333 228.8 16.6667 205.467 24.4 177.2C44.1333 105.733 55.7334 63.3331 59.2001 49.9998C62.6668 36.6665 64.4001 28.7998 64.4001 26.3998C64.4001 23.4664 64.9333 21.3331 66 19.9998C66.8 18.6664 67.4667 17.0665 68 15.1998C68.5333 11.7331 69.8667 9.59981 72 8.7998C75.4667 7.46647 80 8.13313 85.6 10.7998C91.2 13.1998 96.6667 17.1998 102 22.7998C107.333 28.3998 111.333 34.3998 114 40.7998C116.933 46.9331 119.467 55.7331 121.6 67.1998C121.867 67.9998 122.667 72.1331 124 79.5998C125.333 87.0665 126.533 93.3331 127.6 98.3998C135.333 140.8 139.467 162 140 162C141.067 159.333 146.4 140.533 156 105.6C165.6 70.6664 172 46.5331 175.2 33.1998C178.133 21.9998 180.133 14.9331 181.2 11.9998C184.133 4.26648 189.2 0.79981 196.4 1.5998C204.4 2.3998 212.267 6.66647 220 14.3998C225.067 19.7331 228.267 25.0665 229.6 30.3998C230.667 33.8665 230.8 37.4665 230 41.1998C229.467 44.9331 227.6 52.6665 224.4 64.3998C217.733 87.5998 210.533 114.667 202.8 145.6C196.4 170.133 189.733 195.6 182.8 222C179.867 233.467 177.733 241.733 176.4 246.8C174.533 253.467 172.667 260.267 170.8 267.2C169.467 271.467 167.867 277.333 166 284.8C164.133 291.2 162.933 294.8 162.4 295.6C159.467 298.8 154.133 299.467 146.4 297.6Z" fill="white"/>
<path d="M392.928 298C387.061 296.4 381.328 293.733 375.728 290C370.128 286.267 365.728 282.267 362.528 278C360.395 275.333 352.261 258 338.128 226C333.595 216.133 331.195 211.067 330.928 210.8C330.661 210.8 324.528 217.6 312.528 231.2C275.995 271.733 255.328 293.333 250.528 296C247.061 298.133 241.861 297.733 234.928 294.8C228.261 291.6 222.261 286.933 216.928 280.8C212.128 275.2 209.595 270.4 209.328 266.4C209.328 264 210.261 261.6 212.128 259.2C217.728 251.467 233.861 232.267 260.528 201.6C285.061 173.6 299.328 157.467 303.328 153.2L304.928 151.6L302.528 146.4C301.995 145.6 298.795 138.8 292.928 126C291.328 122 280.795 98.6666 261.328 55.9999C250.928 33.0666 245.728 20.3999 245.728 17.9999C245.728 13.4666 248.395 10.9332 253.728 10.3999C259.328 9.86654 265.861 11.3332 273.328 14.7999C285.595 20.6666 294.395 29.1999 299.728 40.3999C302.128 44.6666 313.195 69.0666 332.928 113.6C333.728 116 334.261 117.2 334.528 117.2C335.061 117.2 342.528 109.067 356.928 92.7999C361.728 87.7332 368.795 79.8666 378.128 69.1999C387.728 58.5332 392.661 53.0665 392.928 52.7999C402.528 42.1332 411.328 32.1332 419.328 22.7999C425.728 15.5999 429.728 11.3332 431.328 9.99987C432.928 8.66654 434.795 8.26653 436.928 8.79986C441.195 9.59987 445.861 12.5332 450.928 17.5999C461.328 27.9999 467.061 38.6665 468.128 49.5999C468.395 54.1332 467.461 57.5999 465.328 59.9999C461.328 63.7332 447.195 79.4666 422.928 107.2C413.861 117.333 400.528 132.267 382.928 152L360.928 176.8L362.528 180C363.861 182.667 366.395 188.267 370.128 196.8C370.661 197.867 375.195 207.867 383.728 226.8C384.795 229.467 385.995 232.4 387.328 235.6C388.928 238.8 390.128 241.467 390.928 243.6C391.995 245.733 392.661 247.2 392.928 248C404.928 273.6 411.061 287.867 411.328 290.8C411.861 294.267 410.661 296.8 407.728 298.4C404.261 300 399.328 299.867 392.928 298Z" fill="#7377FF"/>
</svg>
