<svg width="266" height="266" viewBox="0 0 266 266" fill="none" xmlns="http://www.w3.org/2000/svg">
<path d="M121.416 0L147.67 0.0665C158.017 1.3167 167.088 6.1845 174.563 14.4039C180.667 21.1071 183.872 28.9009 184.059 37.3863H256.876C259.308 37.4004 261.634 38.3789 263.345 40.1071C265.056 41.8352 266.011 44.1716 266 46.6032C266.005 47.8066 265.773 48.9992 265.318 50.113C264.862 51.2269 264.191 52.24 263.344 53.0946C262.497 53.9493 261.49 54.6287 260.38 55.094C259.27 55.5594 258.08 55.8016 256.876 55.8068L232.457 55.7935V210.433C232.457 244.254 219.836 266 192.012 266H72.0727C44.2491 266 31.8269 244.374 31.8269 210.433V55.7935H9.12381C6.69806 55.7829 4.37546 54.811 2.66518 53.0907C0.95489 51.3705 -0.00353391 49.0423 9.79203e-06 46.6165C9.79203e-06 41.5226 4.08311 37.4129 9.12381 37.4129H81.8748C82.061 30.5767 84.6013 23.6474 89.243 16.7979C96.159 6.5835 106.959 0.9842 121.416 0ZM214.21 55.7935H50.0612V210.433C50.0612 235.543 56.9772 247.593 72.0727 247.593H192.012C207.161 247.593 214.223 235.437 214.223 210.433L214.21 55.7935ZM89.3228 84.322C94.3502 84.322 98.4333 88.445 98.4333 93.5256V200.591C98.4386 201.794 98.2067 202.987 97.7511 204.1C97.2954 205.214 96.6248 206.227 95.7776 207.082C94.9303 207.937 93.9231 208.616 92.8133 209.081C91.7035 209.547 90.5129 209.789 89.3095 209.794C86.8814 209.78 84.5582 208.803 82.8501 207.077C81.1419 205.352 80.1884 203.019 80.199 200.591V93.5256C80.199 88.445 84.2954 84.322 89.3228 84.322ZM125.579 84.322C130.633 84.322 134.702 88.445 134.702 93.5256V200.591C134.708 201.794 134.476 202.987 134.02 204.1C133.564 205.214 132.894 206.227 132.047 207.082C131.199 207.937 130.192 208.616 129.082 209.081C127.973 209.547 126.782 209.789 125.579 209.794C123.151 209.78 120.827 208.803 119.119 207.077C117.411 205.352 116.457 203.019 116.468 200.591V93.5256C116.468 88.445 120.551 84.322 125.579 84.322ZM161.861 84.322C166.888 84.322 170.971 88.445 170.971 93.5256V200.591C170.982 203.019 170.029 205.352 168.32 207.077C166.612 208.803 164.289 209.78 161.861 209.794C160.658 209.789 159.467 209.547 158.357 209.081C157.247 208.616 156.24 207.937 155.393 207.082C154.546 206.227 153.875 205.214 153.419 204.1C152.964 202.987 152.732 201.794 152.737 200.591V93.5256C152.73 91.0963 153.687 88.7633 155.397 87.038C157.107 85.3128 159.432 84.3361 161.861 84.322ZM122.041 18.3806C113.502 18.9791 107.876 21.8918 104.299 27.1852C101.665 31.0555 100.349 34.4071 100.136 37.3996L165.811 37.3863C165.625 33.516 164.095 30.1112 161.13 26.8527C156.528 21.7987 151.421 19.0589 146.593 18.4072L122.041 18.3806Z" fill="#F8F8F8" fill-opacity="0.02"/>
</svg>
