<svg width="24" height="24" viewBox="0 0 24 24" fill="none" xmlns="http://www.w3.org/2000/svg">
<g clip-path="url(#clip0_36_575)">
<path d="M10.9548 0L13.3236 0.006C14.2572 0.1188 15.0756 0.558 15.75 1.2996C16.3008 1.9044 16.59 2.6076 16.6068 3.3732H23.1768C23.3962 3.37447 23.6061 3.46276 23.7605 3.61868C23.9148 3.7746 24.001 3.98541 24 4.2048C24.0005 4.31338 23.9796 4.42098 23.9384 4.52148C23.8973 4.62197 23.8368 4.71338 23.7604 4.79049C23.6839 4.8676 23.5931 4.9289 23.4929 4.97089C23.3928 5.01288 23.2854 5.03473 23.1768 5.0352L20.9736 5.034V18.9864C20.9736 22.038 19.8348 24 17.3244 24H6.5028C3.9924 24 2.8716 22.0488 2.8716 18.9864V5.034H0.823201C0.604336 5.03305 0.394779 4.94535 0.240467 4.79014C0.0861555 4.63493 -0.000318849 4.42487 8.83491e-07 4.206C8.83491e-07 3.7464 0.368401 3.3756 0.823201 3.3756H7.3872C7.404 2.7588 7.6332 2.1336 8.052 1.5156C8.676 0.594 9.6504 0.0888 10.9548 0ZM19.3272 5.034H4.5168V18.9864C4.5168 21.252 5.1408 22.3392 6.5028 22.3392H17.3244C18.6912 22.3392 19.3284 21.2424 19.3284 18.9864L19.3272 5.034ZM8.0592 7.608C8.5128 7.608 8.8812 7.98 8.8812 8.4384V18.0984C8.88168 18.207 8.86076 18.3146 8.81964 18.4151C8.77853 18.5156 8.71803 18.607 8.64159 18.6841C8.56514 18.7612 8.47426 18.8225 8.37413 18.8645C8.274 18.9065 8.16658 18.9283 8.058 18.9288C7.83893 18.9275 7.62931 18.8394 7.47519 18.6837C7.32107 18.528 7.23504 18.3175 7.236 18.0984V8.4384C7.236 7.98 7.6056 7.608 8.0592 7.608ZM11.3304 7.608C11.7864 7.608 12.1536 7.98 12.1536 8.4384V18.0984C12.1541 18.207 12.1332 18.3146 12.092 18.4151C12.0509 18.5156 11.9904 18.607 11.914 18.6841C11.8375 18.7612 11.7467 18.8225 11.6465 18.8645C11.5464 18.9065 11.439 18.9283 11.3304 18.9288C11.1113 18.9275 10.9017 18.8394 10.7476 18.6837C10.5935 18.528 10.5074 18.3175 10.5084 18.0984V8.4384C10.5084 7.98 10.8768 7.608 11.3304 7.608ZM14.604 7.608C15.0576 7.608 15.426 7.98 15.426 8.4384V18.0984C15.427 18.3175 15.3409 18.528 15.1868 18.6837C15.0327 18.8394 14.8231 18.9275 14.604 18.9288C14.4954 18.9283 14.388 18.9065 14.2879 18.8645C14.1877 18.8225 14.0969 18.7612 14.0204 18.6841C13.944 18.607 13.8835 18.5156 13.8424 18.4151C13.8012 18.3146 13.7803 18.207 13.7808 18.0984V8.4384C13.7802 8.21921 13.8665 8.00872 14.0208 7.85306C14.1751 7.6974 14.3848 7.60927 14.604 7.608ZM11.0112 1.6584C10.2408 1.7124 9.7332 1.9752 9.4104 2.4528C9.1728 2.802 9.054 3.1044 9.0348 3.3744L14.9604 3.3732C14.9436 3.024 14.8056 2.7168 14.538 2.4228C14.1228 1.9668 13.662 1.7196 13.2264 1.6608L11.0112 1.6584Z" fill="white"/>
</g>
<defs>
<clipPath id="clip0_36_575">
<rect width="24" height="24" fill="white"/>
</clipPath>
</defs>
</svg>
