<svg width="26" height="23" viewBox="0 0 26 23" fill="none" xmlns="http://www.w3.org/2000/svg">
<path d="M12.635 7L16.3333 10.6867V10.5C16.3333 9.57174 15.9646 8.6815 15.3082 8.02513C14.6518 7.36875 13.7616 7 12.8333 7H12.635ZM7.61833 7.93333L9.42667 9.74167C9.36833 9.98667 9.33333 10.2317 9.33333 10.5C9.33333 11.4283 9.70208 12.3185 10.3585 12.9749C11.0148 13.6313 11.9051 14 12.8333 14C13.09 14 13.3467 13.965 13.5917 13.9067L15.4 15.715C14.6183 16.1 13.755 16.3333 12.8333 16.3333C11.2862 16.3333 9.80251 15.7188 8.70854 14.6248C7.61458 13.5308 7 12.0471 7 10.5C7 9.57833 7.23333 8.715 7.61833 7.93333ZM1.16667 1.48167L3.82667 4.14167L4.35167 4.66667C2.42667 6.18333 0.91 8.16667 0 10.5C2.01833 15.6217 7 19.25 12.8333 19.25C14.6417 19.25 16.3683 18.9 17.9433 18.27L18.445 18.76L21.8517 22.1667L23.3333 20.685L2.64833 0M12.8333 4.66667C14.3804 4.66667 15.8642 5.28125 16.9581 6.37521C18.0521 7.46917 18.6667 8.9529 18.6667 10.5C18.6667 11.2467 18.515 11.97 18.2467 12.6233L21.665 16.0417C23.415 14.5833 24.815 12.67 25.6667 10.5C23.6483 5.37833 18.6667 1.75 12.8333 1.75C11.2 1.75 9.63667 2.04167 8.16667 2.56667L10.6983 5.075C11.3633 4.81833 12.075 4.66667 12.8333 4.66667Z" fill="white"/>
</svg>
