<svg width="277" height="263" viewBox="0 0 277 263" fill="none" xmlns="http://www.w3.org/2000/svg">
<path d="M208.581 152.275C182.82 152.275 161.214 170.683 155.674 195.181C142.517 189.506 130.467 191.029 121.326 195.043C115.648 170.406 94.0415 152.275 68.419 152.275C38.3645 152.275 13.85 177.05 13.85 207.638C13.85 238.225 38.3645 263 68.419 263C96.95 263 120.218 240.578 122.434 212.067C127.143 208.745 139.47 202.517 154.566 212.343C157.059 240.717 180.05 263 208.581 263C238.636 263 263.15 238.225 263.15 207.638C263.15 177.05 238.636 152.275 208.581 152.275ZM68.419 247.222C46.813 247.222 29.5005 229.506 29.5005 207.638C29.5005 185.769 46.9515 168.054 68.419 168.054C90.025 168.054 107.338 185.769 107.338 207.638C107.338 229.506 90.025 247.222 68.419 247.222ZM208.581 247.222C186.975 247.222 169.663 229.506 169.663 207.638C169.663 185.769 186.975 168.054 208.581 168.054C230.187 168.054 247.638 185.769 247.638 207.638C247.638 229.506 230.048 247.222 208.581 247.222ZM277 117.674H0V138.435H277V117.674ZM187.391 8.74822C184.344 1.96633 176.588 -1.63223 169.247 0.72067L138.5 10.9627L107.615 0.72067L106.922 0.582264C99.5815 -1.49383 91.8255 2.38154 89.0555 9.44025L55.4 96.9128H221.6L187.806 9.44025L187.391 8.74822Z" fill="#F8F8F8" fill-opacity="0.02"/>
</svg>
