<svg width="262" height="297" viewBox="0 0 262 297" fill="none" xmlns="http://www.w3.org/2000/svg">
<g clip-path="url(#clip0_10_5)">
<path d="M215.594 167.062C218.107 167.062 220.283 167.981 222.12 169.818C223.957 171.655 224.875 173.83 224.875 176.344C224.875 178.857 223.957 181.033 222.12 182.87C220.283 184.707 218.107 185.625 215.594 185.625C213.08 185.625 210.905 184.707 209.068 182.87C207.231 181.033 206.312 178.857 206.312 176.344C206.312 173.83 207.231 171.655 209.068 169.818C210.905 167.981 213.08 167.062 215.594 167.062ZM128.147 164.307C120.509 159.086 112.292 155.171 103.494 152.561C94.6958 149.95 85.6562 148.597 76.375 148.5C67.8672 148.5 59.6494 149.612 51.7217 151.835C43.7939 154.059 36.3979 157.153 29.5337 161.117C22.6694 165.081 16.4336 169.915 10.8262 175.619C5.21875 181.323 0.384766 187.607 -3.67578 194.471C-7.73633 201.335 -10.8784 208.731 -13.1021 216.659C-15.3257 224.587 -16.4375 232.805 -16.4375 241.312H-35C-35 230.001 -33.3081 218.931 -29.9243 208.103C-26.5405 197.275 -21.6582 187.269 -15.2773 178.084C-8.89648 168.899 -1.30713 160.73 7.49072 153.576C16.2886 146.421 26.1016 140.959 36.9297 137.188C31.5156 133.708 26.6816 129.696 22.4277 125.152C18.1738 120.608 14.5 115.629 11.4062 110.215C8.3125 104.801 6.04053 99.0967 4.59033 93.1025C3.14014 87.1084 2.31836 80.8242 2.125 74.25C2.125 64.002 4.05859 54.3823 7.92578 45.3911C11.793 36.3999 17.062 28.5205 23.7329 21.7529C30.4038 14.9854 38.2832 9.66797 47.3711 5.80078C56.459 1.93359 66.127 0 76.375 0C86.623 0 96.2427 1.93359 105.234 5.80078C114.225 9.66797 122.104 14.937 128.872 21.6079C135.64 28.2788 140.957 36.1582 144.824 45.2461C148.691 54.334 150.625 64.002 150.625 74.25C150.625 80.7275 149.852 86.9634 148.305 92.9575C146.758 98.9517 144.438 104.704 141.344 110.215C138.25 115.726 134.625 120.705 130.467 125.152C126.31 129.599 121.428 133.611 115.82 137.188C123.651 139.992 131.192 143.859 138.443 148.79L128.147 164.307ZM20.6875 74.25C20.6875 81.9844 22.1377 89.187 25.0381 95.8579C27.9385 102.529 31.9023 108.426 36.9297 113.55C41.957 118.674 47.8545 122.687 54.6221 125.587C61.3896 128.487 68.6406 129.938 76.375 129.938C84.0127 129.938 91.2153 128.487 97.9829 125.587C104.75 122.687 110.648 118.723 115.675 113.695C120.703 108.668 124.715 102.771 127.712 96.0029C130.709 89.2354 132.159 81.9844 132.062 74.25C132.062 66.6123 130.612 59.4097 127.712 52.6421C124.812 45.8745 120.848 39.9771 115.82 34.9497C110.793 29.9224 104.847 25.9102 97.9829 22.9131C91.1187 19.916 83.916 18.4658 76.375 18.5625C68.6406 18.5625 61.438 20.0127 54.7671 22.9131C48.0962 25.8135 42.1987 29.7773 37.0747 34.8047C31.9507 39.832 27.9385 45.7778 25.0381 52.6421C22.1377 59.5063 20.6875 66.709 20.6875 74.25ZM206.312 129.938C213.95 129.938 221.153 131.388 227.92 134.288C234.688 137.188 240.585 141.152 245.613 146.18C250.64 151.207 254.652 157.153 257.649 164.017C260.646 170.881 262.097 178.084 262 185.625C262 193.359 260.55 200.562 257.649 207.233C254.749 213.904 250.785 219.801 245.758 224.925C240.73 230.049 234.785 234.062 227.92 236.962C221.056 239.862 213.854 241.312 206.312 241.312C200.028 241.312 193.841 240.201 187.75 237.977V259.875H169.188V278.438H150.625V297H94.9375V256.104L152.22 198.677C151.157 194.229 150.625 189.879 150.625 185.625C150.625 177.987 152.075 170.785 154.976 164.017C157.876 157.25 161.84 151.352 166.867 146.325C171.895 141.297 177.792 137.285 184.56 134.288C191.327 131.291 198.578 129.841 206.312 129.938ZM206.312 222.75C211.437 222.75 216.222 221.783 220.669 219.85C225.117 217.916 229.081 215.257 232.561 211.874C236.042 208.49 238.7 204.574 240.537 200.127C242.374 195.68 243.341 190.846 243.438 185.625C243.438 180.501 242.471 175.715 240.537 171.268C238.604 166.821 235.945 162.857 232.561 159.376C229.177 155.896 225.262 153.237 220.814 151.4C216.367 149.563 211.533 148.597 206.312 148.5C201.188 148.5 196.403 149.467 191.956 151.4C187.508 153.334 183.544 155.993 180.064 159.376C176.583 162.76 173.925 166.676 172.088 171.123C170.251 175.57 169.284 180.404 169.188 185.625C169.188 189.009 169.623 192.103 170.493 194.906C171.363 197.71 172.378 200.659 173.538 203.752L113.5 263.646V278.438H132.062V259.875H150.625V241.312H169.188V228.116L182.674 214.774C186.542 216.998 190.264 218.883 193.841 220.43C197.418 221.977 201.575 222.75 206.312 222.75Z" fill="#D99BFF" fill-opacity="0.05"/>
</g>
<defs>
<clipPath id="clip0_10_5">
<rect width="297" height="297" fill="white" transform="translate(-35)"/>
</clipPath>
</defs>
</svg>
