<svg width="293" height="293" viewBox="0 0 293 293" fill="none" xmlns="http://www.w3.org/2000/svg">
<path d="M108.604 0C137.408 0 165.032 11.4422 185.399 31.8094C205.766 52.1767 217.208 79.8006 217.208 108.604C217.208 135.505 207.35 160.233 191.143 179.28L195.655 183.792H208.854L292.396 267.333L267.333 292.396L183.792 208.854V195.655L179.28 191.143C159.574 207.965 134.514 217.207 108.604 217.208C79.8006 217.208 52.1767 205.766 31.8094 185.399C11.4422 165.032 0 137.408 0 108.604C0 79.8006 11.4422 52.1767 31.8094 31.8094C52.1767 11.4422 79.8006 0 108.604 0ZM108.604 33.4167C66.8333 33.4167 33.4167 66.8333 33.4167 108.604C33.4167 150.375 66.8333 183.792 108.604 183.792C150.375 183.792 183.792 150.375 183.792 108.604C183.792 66.8333 150.375 33.4167 108.604 33.4167Z" fill="#F8F8F8" fill-opacity="0.02"/>
</svg>
