<svg width="30" height="30" viewBox="0 0 30 30" fill="none" xmlns="http://www.w3.org/2000/svg">
<path fill-rule="evenodd" clip-rule="evenodd" d="M20.4925 2.52626L20.575 2.54876C21.95 2.91751 23.0388 3.20876 23.895 3.51876C24.7713 3.83501 25.4863 4.19626 26.075 4.74751C26.9319 5.55067 27.5313 6.5899 27.7975 7.73376C27.9813 8.51876 27.9375 9.31876 27.7725 10.235C27.6138 11.1325 27.3225 12.2213 26.9538 13.595L26.2838 16.0938C25.9163 17.4675 25.6238 18.5563 25.315 19.4125C24.9975 20.2888 24.6363 21.0038 24.085 21.5925C23.3081 22.4221 22.3094 23.0113 21.2075 23.29C20.8847 24.0301 20.4142 24.6966 19.825 25.2488C19.2363 25.8 18.5213 26.1613 17.645 26.4788C16.7888 26.7888 15.7 27.08 14.3263 27.4488L14.2425 27.4713C12.8675 27.8388 11.78 28.13 10.8825 28.2913C9.96626 28.455 9.16626 28.4988 8.38001 28.3163C7.2363 28.0491 6.1975 27.4488 5.39501 26.5913C4.84501 26.0038 4.48251 25.2888 4.16501 24.4125C3.85626 23.5563 3.56501 22.4675 3.19626 21.0925L2.52626 18.595C2.15876 17.22 1.86626 16.1325 1.70626 15.235C1.54251 14.3188 1.49876 13.5188 1.68126 12.7325C1.94838 11.5888 2.54869 10.55 3.40626 9.74751C3.99376 9.19751 4.70876 8.83501 5.58501 8.51751C6.44126 8.20876 7.53001 7.91751 8.90376 7.54876L8.94626 7.53626L9.88501 7.28626C10.375 5.53751 10.805 4.30126 11.645 3.40501C12.4477 2.5479 13.4865 1.94803 14.63 1.68126C15.4163 1.49876 16.215 1.54251 17.1325 1.70626C18.0288 1.86626 19.1175 2.15876 20.4925 2.52626ZM9.31876 9.37876C7.95251 9.74501 6.97376 10.01 6.22126 10.2813C5.45876 10.5563 5.01251 10.8113 4.68751 11.1163C4.10083 11.6654 3.69018 12.3762 3.50751 13.1588C3.40751 13.5938 3.40876 14.1088 3.55251 14.905C3.69626 15.7138 3.96751 16.7263 4.34876 18.1513L4.99626 20.5663C5.37751 21.9913 5.65001 23.0038 5.92876 23.775C6.20376 24.5375 6.45876 24.985 6.76376 25.31C7.31291 25.8967 8.02371 26.3073 8.80626 26.49C9.24001 26.59 9.75626 26.5875 10.5525 26.445C11.3613 26.3013 12.3738 26.03 13.7988 25.6488C15.2238 25.2663 16.2363 24.995 17.0088 24.715C17.77 24.44 18.2175 24.185 18.5425 23.8813C18.715 23.7188 18.8713 23.5438 19.0125 23.3575C18.7806 23.3244 18.5497 23.2848 18.32 23.2388C17.48 23.0713 16.47 22.8013 15.2263 22.4675L15.1538 22.4488C13.78 22.08 12.6913 21.7888 11.835 21.4788C10.9588 21.1625 10.2438 20.8013 9.65501 20.25C8.79769 19.447 8.1978 18.4078 7.93126 17.2638C7.74876 16.4788 7.79251 15.6788 7.95626 14.7613C8.11626 13.865 8.40876 12.7763 8.77626 11.4025L9.31876 9.37876ZM16.8025 3.55251C16.005 3.40876 15.49 3.40626 15.0563 3.50751C14.2737 3.69018 13.5629 4.10083 13.0138 4.68751C12.4688 5.26876 12.1325 6.16876 11.55 8.30376C11.455 8.65126 11.355 9.02501 11.2463 9.43126L10.5988 11.8463C10.2175 13.2713 9.94626 14.2838 9.80251 15.0925C9.65876 15.8888 9.65626 16.405 9.75751 16.8388C9.94018 17.6213 10.3508 18.3321 10.9375 18.8813C11.2625 19.1863 11.71 19.44 12.4713 19.7163C13.2438 19.995 14.2563 20.2663 15.6813 20.6488C16.9625 20.9925 17.9125 21.2463 18.685 21.3988C19.4538 21.5525 19.9763 21.59 20.4038 21.5375C20.4975 21.525 20.5863 21.51 20.6738 21.49C21.4563 21.3073 22.1671 20.8967 22.7163 20.31C23.0213 19.985 23.2763 19.5375 23.5513 18.7763C23.83 18.0038 24.1013 16.9913 24.4838 15.5663L25.1313 13.1513C25.5125 11.7263 25.7838 10.7138 25.9275 9.90501C26.07 9.10876 26.0738 8.59251 25.9725 8.15876C25.7898 7.37621 25.3792 6.66541 24.7925 6.11626C24.4675 5.81126 24.02 5.55751 23.2588 5.28126C22.485 5.00251 21.4738 4.73126 20.0488 4.34876C18.6238 3.96751 17.6113 3.69626 16.8025 3.55251ZM13.815 12.2575C13.8469 12.1386 13.9019 12.0271 13.9769 11.9294C14.052 11.8317 14.1455 11.7498 14.2521 11.6883C14.3588 11.6268 14.4766 11.5869 14.5987 11.5709C14.7208 11.5548 14.8448 11.5631 14.9638 11.595L21.0013 13.2125C21.2348 13.2827 21.4317 13.4411 21.5504 13.6542C21.669 13.8672 21.7 14.1181 21.6367 14.3535C21.5735 14.589 21.4209 14.7906 21.2115 14.9155C21.0021 15.0404 20.7523 15.0788 20.515 15.0225L14.4775 13.405C14.2376 13.3406 14.033 13.1835 13.9088 12.9684C13.7846 12.7532 13.7509 12.4975 13.815 12.2575ZM12.8438 15.88C12.8757 15.7609 12.9307 15.6493 13.0058 15.5515C13.0809 15.4538 13.1745 15.3718 13.2814 15.3102C13.3882 15.2487 13.5061 15.2088 13.6283 15.1929C13.7506 15.177 13.8748 15.1854 13.9938 15.2175L17.615 16.1875C17.8552 16.2518 18.06 16.4089 18.1844 16.6242C18.3087 16.8396 18.3425 17.0955 18.2781 17.3356C18.2138 17.5758 18.0567 17.7806 17.8414 17.905C17.6261 18.0293 17.3702 18.0631 17.13 17.9988L13.5075 17.0275C13.2676 16.9631 13.063 16.806 12.9388 16.5909C12.8146 16.3757 12.7809 16.12 12.845 15.88H12.8438Z" fill="white"/>
</svg>
