<svg width="28" height="28" viewBox="0 0 28 28" fill="none" xmlns="http://www.w3.org/2000/svg">
<path d="M9.33331 2.33334H18.6666C20.5232 2.33334 22.3036 3.07084 23.6164 4.3836C24.9292 5.69635 25.6666 7.47683 25.6666 9.33334V18.6667C25.6666 20.5232 24.9292 22.3037 23.6164 23.6164C22.3036 24.9292 20.5232 25.6667 18.6666 25.6667H9.33331C7.4768 25.6667 5.69632 24.9292 4.38357 23.6164C3.07081 22.3037 2.33331 20.5232 2.33331 18.6667L2.33331 9.33334C2.33331 7.47683 3.07081 5.69635 4.38357 4.3836C5.69632 3.07084 7.4768 2.33334 9.33331 2.33334ZM9.33331 4.66668C8.09564 4.66668 6.90865 5.15834 6.03348 6.03351C5.15831 6.90868 4.66665 8.09567 4.66665 9.33334V18.6667C4.66665 19.9044 5.15831 21.0913 6.03348 21.9665C6.90865 22.8417 8.09564 23.3333 9.33331 23.3333H18.6666C19.9043 23.3333 21.0913 22.8417 21.9665 21.9665C22.8416 21.0913 23.3333 19.9044 23.3333 18.6667V9.33334C23.3333 8.09567 22.8416 6.90868 21.9665 6.03351C21.0913 5.15834 19.9043 4.66668 18.6666 4.66668H9.33331ZM16.3333 12.8333H19.8333C20.1427 12.8333 20.4395 12.9563 20.6583 13.1751C20.8771 13.3938 21 13.6906 21 14C21 14.3094 20.8771 14.6062 20.6583 14.825C20.4395 15.0438 20.1427 15.1667 19.8333 15.1667H16.3333C16.0239 15.1667 15.7271 15.0438 15.5084 14.825C15.2896 14.6062 15.1666 14.3094 15.1666 14C15.1666 13.6906 15.2896 13.3938 15.5084 13.1751C15.7271 12.9563 16.0239 12.8333 16.3333 12.8333ZM14 17.5H19.8333C20.1427 17.5 20.4395 17.6229 20.6583 17.8417C20.8771 18.0605 21 18.3573 21 18.6667C21 18.9761 20.8771 19.2728 20.6583 19.4916C20.4395 19.7104 20.1427 19.8333 19.8333 19.8333H14C13.6906 19.8333 13.3938 19.7104 13.175 19.4916C12.9562 19.2728 12.8333 18.9761 12.8333 18.6667C12.8333 18.3573 12.9562 18.0605 13.175 17.8417C13.3938 17.6229 13.6906 17.5 14 17.5ZM14 8.16668H19.8333C20.1427 8.16668 20.4395 8.28959 20.6583 8.50839C20.8771 8.72718 21 9.02392 21 9.33334C21 9.64276 20.8771 9.93951 20.6583 10.1583C20.4395 10.3771 20.1427 10.5 19.8333 10.5H14C13.6906 10.5 13.3938 10.3771 13.175 10.1583C12.9562 9.93951 12.8333 9.64276 12.8333 9.33334C12.8333 9.02392 12.9562 8.72718 13.175 8.50839C13.3938 8.28959 13.6906 8.16668 14 8.16668ZM9.13265 14.2835L11.6083 11.8067C11.7167 11.6984 11.8454 11.6125 11.987 11.5539C12.1286 11.4953 12.2803 11.4651 12.4336 11.4652C12.5868 11.4652 12.7385 11.4955 12.8801 11.5542C13.0216 11.6129 13.1502 11.6989 13.2586 11.8073C13.3669 11.9157 13.4528 12.0443 13.5114 12.1859C13.57 12.3275 13.6001 12.4793 13.6 12.6325C13.6 12.7857 13.5698 12.9375 13.5111 13.079C13.4524 13.2206 13.3664 13.3492 13.258 13.4575L9.95865 16.7568C9.85029 16.8653 9.72163 16.9514 9.57999 17.0101C9.43836 17.0688 9.28655 17.099 9.13323 17.099C8.97991 17.099 8.8281 17.0688 8.68647 17.0101C8.54484 16.9514 8.41616 16.8653 8.30781 16.7568L6.65815 15.1083C6.44563 14.8883 6.32804 14.5936 6.33069 14.2877C6.33335 13.9818 6.45605 13.6892 6.67236 13.4729C6.88867 13.2566 7.18128 13.1339 7.48718 13.1312C7.79307 13.1286 8.08778 13.2462 8.30781 13.4587L9.13265 14.2835Z" fill="white"/>
</svg>
